STARTFONT 2.3
FONT -FontForge-Fredoka One-Book-R-Normal--11-110-72-72-P-64-ISO10646-1
SIZE 11 72 72  2
FONTBOUNDINGBOX 15 14 -2 -3
COMMENT "Generated by fontforge, http://fontforge.sourceforge.net"
COMMENT "Copyright (c) 2011 Milena B Brandao (milenabbrandao@gmail.com), with Reserved Font Name "Fredoka""
STARTPROPERTIES 40
FOUNDRY "FontForge"
FAMILY_NAME "Fredoka One"
WEIGHT_NAME "Book"
SLANT "R"
SETWIDTH_NAME "Normal"
ADD_STYLE_NAME ""
PIXEL_SIZE 11
POINT_SIZE 110
RESOLUTION_X 72
RESOLUTION_Y 72
SPACING "P"
AVERAGE_WIDTH 64
CHARSET_REGISTRY "ISO10646"
CHARSET_ENCODING "1"
FONTNAME_REGISTRY ""
CHARSET_COLLECTIONS "ISO10646-1"
BITS_PER_PIXEL 2
FONT_NAME "FredokaOne-Regular"
FACE_NAME "Fredoka One"
COPYRIGHT "Copyright (c) 2011 Milena B Brandao (milenabbrandao@gmail.com), with Reserved Font Name "Fredoka""
FONT_VERSION "1.001"
FONT_ASCENT 9
FONT_DESCENT 2
UNDERLINE_POSITION -1
UNDERLINE_THICKNESS 1
X_HEIGHT 5
CAP_HEIGHT 7
RAW_ASCENT 800
RAW_DESCENT 200
NORM_SPACE 3
RELATIVE_WEIGHT 40
RELATIVE_SETWIDTH 50
SUPERSCRIPT_X 0
SUPERSCRIPT_Y 5
SUPERSCRIPT_SIZE 7
SUBSCRIPT_X 0
SUBSCRIPT_Y 1
SUBSCRIPT_SIZE 7
AVG_LOWERCASE_WIDTH 64
AVG_UPPERCASE_WIDTH 76
ENDPROPERTIES
CHARS 235
STARTCHAR space
ENCODING 32
SWIDTH 253 0
DWIDTH 3 0
BBX 1 1 0 0
BITMAP
00
ENDCHAR
STARTCHAR exclam
ENCODING 33
SWIDTH 267 0
DWIDTH 3 0
BBX 3 8 0 0
BITMAP
74
B4
B4
B4
74
00
74
74
ENDCHAR
STARTCHAR quotedbl
ENCODING 34
SWIDTH 429 0
DWIDTH 5 0
BBX 5 4 0 4
BITMAP
B740
B740
A340
5200
ENDCHAR
STARTCHAR numbersign
ENCODING 35
SWIDTH 749 0
DWIDTH 8 0
BBX 8 8 0 0
BITMAP
0B1C
0A2C
7FFF
2E79
1E78
BFFE
2C74
2870
ENDCHAR
STARTCHAR dollar
ENCODING 36
SWIDTH 475 0
DWIDTH 5 0
BBX 5 10 0 -1
BITMAP
0400
0D00
3F40
B640
7900
1B80
62C0
7F80
1D00
0800
ENDCHAR
STARTCHAR percent
ENCODING 37
SWIDTH 838 0
DWIDTH 9 0
BBX 9 10 0 -1
BITMAP
000400
3E0C00
672400
777000
2E9000
01DF40
027A80
063A80
091F40
040000
ENDCHAR
STARTCHAR ampersand
ENCODING 38
SWIDTH 748 0
DWIDTH 8 0
BBX 8 9 0 0
BITMAP
0540
2FD0
3CE0
2FD0
2F40
7F5D
BBFD
BAFE
2FAF
ENDCHAR
STARTCHAR quotesingle
ENCODING 39
SWIDTH 208 0
DWIDTH 2 0
BBX 2 4 0 4
BITMAP
B0
B0
A0
50
ENDCHAR
STARTCHAR parenleft
ENCODING 40
SWIDTH 384 0
DWIDTH 4 0
BBX 4 12 0 -3
BITMAP
05
1F
38
74
B0
B0
B0
B0
74
38
1F
05
ENDCHAR
STARTCHAR parenright
ENCODING 41
SWIDTH 384 0
DWIDTH 4 0
BBX 4 12 0 -3
BITMAP
50
B8
1D
0E
0E
0B
0B
0E
0E
1D
B8
50
ENDCHAR
STARTCHAR asterisk
ENCODING 42
SWIDTH 503 0
DWIDTH 6 0
BBX 6 5 0 3
BITMAP
0E00
BFD0
7FD0
3F80
2640
ENDCHAR
STARTCHAR plus
ENCODING 43
SWIDTH 527 0
DWIDTH 6 0
BBX 6 6 0 0
BITMAP
0500
0E00
BFD0
BFD0
0E00
0500
ENDCHAR
STARTCHAR comma
ENCODING 44
SWIDTH 238 0
DWIDTH 3 0
BBX 3 4 0 -2
BITMAP
B4
B4
70
50
ENDCHAR
STARTCHAR hyphen
ENCODING 45
SWIDTH 433 0
DWIDTH 5 0
BBX 5 3 0 1
BITMAP
1500
BF40
5500
ENDCHAR
STARTCHAR period
ENCODING 46
SWIDTH 237 0
DWIDTH 3 0
BBX 3 2 0 0
BITMAP
B4
B4
ENDCHAR
STARTCHAR slash
ENCODING 47
SWIDTH 526 0
DWIDTH 6 0
BBX 6 10 0 -1
BITMAP
0080
01E0
03C0
0780
0F00
1E00
2D00
7800
B400
5000
ENDCHAR
STARTCHAR zero
ENCODING 48
SWIDTH 608 0
DWIDTH 7 0
BBX 7 8 0 0
BITMAP
1FD0
7FF0
B4B4
B4B4
B4B4
B4B4
7FF0
1FD0
ENDCHAR
STARTCHAR one
ENCODING 49
SWIDTH 407 0
DWIDTH 4 0
BBX 4 8 0 0
BITMAP
0B
3F
BF
5F
0F
0F
0F
0B
ENDCHAR
STARTCHAR two
ENCODING 50
SWIDTH 609 0
DWIDTH 7 0
BBX 7 8 0 0
BITMAP
2FD0
7FF0
B4F0
61F0
07E0
2F80
BFF4
BFF4
ENDCHAR
STARTCHAR three
ENCODING 51
SWIDTH 608 0
DWIDTH 7 0
BBX 7 8 0 0
BITMAP
2FD0
7EF0
25F0
07E0
06F0
B4B4
7EF0
2FD0
ENDCHAR
STARTCHAR four
ENCODING 52
SWIDTH 592 0
DWIDTH 7 0
BBX 6 8 0 0
BITMAP
2CB0
3CF0
78F0
B8F0
BFF0
6AF0
00F0
00B0
ENDCHAR
STARTCHAR five
ENCODING 53
SWIDTH 530 0
DWIDTH 6 0
BBX 6 8 0 0
BITMAP
3FD0
7FD0
7900
BF80
7BD0
11E0
BFD0
7F80
ENDCHAR
STARTCHAR six
ENCODING 54
SWIDTH 560 0
DWIDTH 6 0
BBX 6 8 0 0
BITMAP
07E0
2FD0
7D00
BE40
BFE0
B4F0
7EE0
2F80
ENDCHAR
STARTCHAR seven
ENCODING 55
SWIDTH 561 0
DWIDTH 6 0
BBX 6 8 0 0
BITMAP
BFF0
BFF0
02D0
07C0
0F40
1E00
2D00
2D00
ENDCHAR
STARTCHAR eight
ENCODING 56
SWIDTH 582 0
DWIDTH 6 0
BBX 6 9 0 0
BITMAP
0100
2FC0
7EE0
79E0
3FD0
7EE0
B4F0
7EF0
2F80
ENDCHAR
STARTCHAR nine
ENCODING 57
SWIDTH 560 0
DWIDTH 6 0
BBX 6 8 0 0
BITMAP
2F80
BAE0
B5E0
7FF0
1AE0
07D0
7F80
7E00
ENDCHAR
STARTCHAR colon
ENCODING 58
SWIDTH 238 0
DWIDTH 3 0
BBX 3 6 0 0
BITMAP
60
B4
50
00
B4
B4
ENDCHAR
STARTCHAR semicolon
ENCODING 59
SWIDTH 237 0
DWIDTH 3 0
BBX 3 8 0 -2
BITMAP
60
B4
50
00
B4
B4
70
50
ENDCHAR
STARTCHAR less
ENCODING 60
SWIDTH 627 0
DWIDTH 7 0
BBX 7 8 0 0
BITMAP
0010
01F8
0BE0
7E40
BD00
2F90
02F4
0064
ENDCHAR
STARTCHAR equal
ENCODING 61
SWIDTH 478 0
DWIDTH 5 0
BBX 5 5 0 0
BITMAP
5540
BFC0
1540
BFC0
6A40
ENDCHAR
STARTCHAR greater
ENCODING 62
SWIDTH 627 0
DWIDTH 7 0
BBX 7 8 0 0
BITMAP
5000
B900
2F80
07F4
01F8
1BD0
BE00
A400
ENDCHAR
STARTCHAR question
ENCODING 63
SWIDTH 512 0
DWIDTH 6 0
BBX 6 9 0 0
BITMAP
0400
7F80
BAD0
52D0
0BC0
0E00
0000
1E00
1E00
ENDCHAR
STARTCHAR at
ENCODING 64
SWIDTH 908 0
DWIDTH 10 0
BBX 10 10 0 -2
BITMAP
005000
0BFE00
3D5BC0
72FCD0
A768A0
A7B8A0
B2F9D0
382F80
1FC500
014000
ENDCHAR
STARTCHAR A
ENCODING 65
SWIDTH 765 0
DWIDTH 8 0
BBX 8 8 0 0
BITMAP
02C0
03E0
0BF0
0FB8
2E7C
3FFE
B95F
B00B
ENDCHAR
STARTCHAR B
ENCODING 66
SWIDTH 646 0
DWIDTH 7 0
BBX 7 8 0 0
BITMAP
7FE0
BFF4
B478
B6F4
B5B8
B478
BFF8
7FE0
ENDCHAR
STARTCHAR C
ENCODING 67
SWIDTH 679 0
DWIDTH 7 0
BBX 7 8 0 0
BITMAP
0BF8
3FFC
7804
B400
B400
7804
2FFC
0BF8
ENDCHAR
STARTCHAR D
ENCODING 68
SWIDTH 704 0
DWIDTH 8 0
BBX 8 8 0 0
BITMAP
7FD0
BFF8
B47D
B42D
B42D
B47C
BFF8
7F90
ENDCHAR
STARTCHAR E
ENCODING 69
SWIDTH 638 0
DWIDTH 7 0
BBX 7 8 0 0
BITMAP
7FF8
BFF8
B400
BFD0
BFD0
B400
BFF8
7FF8
ENDCHAR
STARTCHAR F
ENCODING 70
SWIDTH 637 0
DWIDTH 7 0
BBX 7 8 0 0
BITMAP
7FF8
BFF8
B400
BFD0
BFD0
B400
B400
7400
ENDCHAR
STARTCHAR G
ENCODING 71
SWIDTH 714 0
DWIDTH 8 0
BBX 8 8 0 0
BITMAP
0BF8
3FBC
7800
B4BD
B4BD
7C2D
2FFD
0BF8
ENDCHAR
STARTCHAR H
ENCODING 72
SWIDTH 699 0
DWIDTH 8 0
BBX 8 8 0 0
BITMAP
742D
B42D
B42D
BFFD
BEBD
B42D
B42D
742C
ENDCHAR
STARTCHAR I
ENCODING 73
SWIDTH 257 0
DWIDTH 3 0
BBX 3 8 0 0
BITMAP
74
B4
B4
B4
B4
B4
B4
74
ENDCHAR
STARTCHAR J
ENCODING 74
SWIDTH 549 0
DWIDTH 6 0
BBX 6 8 0 0
BITMAP
01D0
01E0
01E0
01E0
01E0
51E0
BFD0
7F40
ENDCHAR
STARTCHAR K
ENCODING 75
SWIDTH 639 0
DWIDTH 7 0
BBX 7 8 0 0
BITMAP
7474
B5F4
BBD0
BF40
BF40
BBD0
B5F4
7474
ENDCHAR
STARTCHAR L
ENCODING 76
SWIDTH 587 0
DWIDTH 6 0
BBX 6 8 0 0
BITMAP
7400
B400
B400
B400
B400
B400
BAA0
7FF0
ENDCHAR
STARTCHAR M
ENCODING 77
SWIDTH 870 0
DWIDTH 10 0
BBX 9 8 0 0
BITMAP
7403C0
BD0BC0
BF1FC0
BFBFC0
B6F6C0
B4A2C0
B402C0
7402C0
ENDCHAR
STARTCHAR N
ENCODING 78
SWIDTH 720 0
DWIDTH 8 0
BBX 8 8 0 0
BITMAP
741D
BD1D
BF1D
BF9D
B6FD
B4FD
B47D
742D
ENDCHAR
STARTCHAR O
ENCODING 79
SWIDTH 775 0
DWIDTH 9 0
BBX 9 8 0 0
BITMAP
0BF400
3FFD00
781F00
B40B40
B40B40
781F00
3FFD00
0BF400
ENDCHAR
STARTCHAR P
ENCODING 80
SWIDTH 632 0
DWIDTH 7 0
BBX 7 8 0 0
BITMAP
7FD0
BFF4
B478
B5B8
BFF0
BE90
B400
7400
ENDCHAR
STARTCHAR Q
ENCODING 81
SWIDTH 830 0
DWIDTH 9 0
BBX 9 8 0 0
BITMAP
0BF400
3FFD00
781F00
B40B40
B40B40
781F00
3FFF80
0BF780
ENDCHAR
STARTCHAR R
ENCODING 82
SWIDTH 631 0
DWIDTH 7 0
BBX 7 8 0 0
BITMAP
7FD0
BFF4
B478
B5B8
BFF0
BEF0
B4B8
7438
ENDCHAR
STARTCHAR S
ENCODING 83
SWIDTH 583 0
DWIDTH 6 0
BBX 6 8 0 0
BITMAP
2FD0
7ED0
B800
7F90
1BF0
60F0
BEF0
2F90
ENDCHAR
STARTCHAR T
ENCODING 84
SWIDTH 731 0
DWIDTH 8 0
BBX 8 8 0 0
BITMAP
BFFE
6BE9
03C0
03C0
03C0
03C0
03C0
02C0
ENDCHAR
STARTCHAR U
ENCODING 85
SWIDTH 726 0
DWIDTH 8 0
BBX 8 8 0 0
BITMAP
741D
B41E
B41E
B41E
B41D
782D
3FF8
0BE0
ENDCHAR
STARTCHAR V
ENCODING 86
SWIDTH 783 0
DWIDTH 9 0
BBX 9 8 0 0
BITMAP
B00740
B80F40
3C1E00
2D3D00
0F7800
0BF400
03E000
02D000
ENDCHAR
STARTCHAR W
ENCODING 87
SWIDTH 999 0
DWIDTH 11 0
BBX 11 8 0 0
BITMAP
B07438
B4B878
78FCB4
3EFDF0
2FDFE0
1FCFD0
0F8BC0
070340
ENDCHAR
STARTCHAR X
ENCODING 88
SWIDTH 741 0
DWIDTH 8 0
BBX 8 8 0 0
BITMAP
B41E
7D3E
2FB8
0BE0
0BF0
2EB8
BC2E
B40E
ENDCHAR
STARTCHAR Y
ENCODING 89
SWIDTH 686 0
DWIDTH 8 0
BBX 8 8 0 0
BITMAP
B42D
787C
2DF4
1FE0
0BC0
0780
0780
0380
ENDCHAR
STARTCHAR Z
ENCODING 90
SWIDTH 643 0
DWIDTH 7 0
BBX 7 8 0 0
BITMAP
BFF4
7FF4
02E0
07C0
0F40
2E00
BFF8
BFF8
ENDCHAR
STARTCHAR bracketleft
ENCODING 91
SWIDTH 348 0
DWIDTH 4 0
BBX 4 12 0 -3
BITMAP
59
BE
B4
B4
B4
B4
B4
B4
B4
B4
BE
15
ENDCHAR
STARTCHAR backslash
ENCODING 92
SWIDTH 528 0
DWIDTH 6 0
BBX 6 10 0 -1
BITMAP
5000
B400
7800
2D00
1E00
0F00
0780
03C0
01E0
0080
ENDCHAR
STARTCHAR bracketright
ENCODING 93
SWIDTH 348 0
DWIDTH 4 0
BBX 4 12 0 -3
BITMAP
64
BD
1D
1D
1D
1D
1D
1D
1D
1D
BD
54
ENDCHAR
STARTCHAR asciicircum
ENCODING 94
SWIDTH 526 0
DWIDTH 6 0
BBX 6 3 0 3
BITMAP
0A00
2F80
76D0
ENDCHAR
STARTCHAR underscore
ENCODING 95
SWIDTH 826 0
DWIDTH 9 0
BBX 9 2 0 -3
BITMAP
BFFFC0
6AAA40
ENDCHAR
STARTCHAR grave
ENCODING 96
SWIDTH 482 0
DWIDTH 5 0
BBX 4 3 1 6
BITMAP
50
FD
18
ENDCHAR
STARTCHAR a
ENCODING 97
SWIDTH 596 0
DWIDTH 7 0
BBX 6 6 0 0
BITMAP
1AA0
7FF0
B9F0
B4F0
7FF0
1FB0
ENDCHAR
STARTCHAR b
ENCODING 98
SWIDTH 592 0
DWIDTH 7 0
BBX 6 9 0 0
BITMAP
5000
B400
B400
BA80
BFE0
B9F0
B8F0
BFE0
7B80
ENDCHAR
STARTCHAR c
ENCODING 99
SWIDTH 517 0
DWIDTH 6 0
BBX 6 6 0 0
BITMAP
1A80
7FD0
B940
B440
7FD0
1F80
ENDCHAR
STARTCHAR d
ENCODING 100
SWIDTH 598 0
DWIDTH 7 0
BBX 6 9 0 0
BITMAP
0050
00B0
00B0
1AF0
3FF0
B9F0
B4F0
7FF0
1FB0
ENDCHAR
STARTCHAR e
ENCODING 101
SWIDTH 573 0
DWIDTH 6 0
BBX 6 6 0 0
BITMAP
1B80
7FE0
B9F0
BE90
7E90
2FE0
ENDCHAR
STARTCHAR f
ENCODING 102
SWIDTH 450 0
DWIDTH 5 0
BBX 5 9 0 0
BITMAP
0500
1F40
2D00
7E40
BF80
3D00
2C00
2C00
2C00
ENDCHAR
STARTCHAR g
ENCODING 103
SWIDTH 585 0
DWIDTH 6 0
BBX 6 9 0 -3
BITMAP
1AA0
7FF0
B5F0
B5F0
7FF0
1AF0
25F0
3FD0
0500
ENDCHAR
STARTCHAR h
ENCODING 104
SWIDTH 605 0
DWIDTH 7 0
BBX 7 9 0 0
BITMAP
5000
B400
B400
BA80
BFE0
B9F0
B4B4
B4B4
74B0
ENDCHAR
STARTCHAR i
ENCODING 105
SWIDTH 255 0
DWIDTH 3 0
BBX 3 9 0 0
BITMAP
50
B4
10
64
B4
B4
B4
B4
74
ENDCHAR
STARTCHAR j
ENCODING 106
SWIDTH 252 0
DWIDTH 3 0
BBX 5 12 -2 -3
BITMAP
0100
0B40
0100
0640
0B40
0B40
0B40
0B40
0B40
1F00
7E00
1400
ENDCHAR
STARTCHAR k
ENCODING 107
SWIDTH 536 0
DWIDTH 6 0
BBX 6 9 0 0
BITMAP
5000
B400
B400
B440
BBD0
BF80
BF40
BBD0
75D0
ENDCHAR
STARTCHAR l
ENCODING 108
SWIDTH 327 0
DWIDTH 4 0
BBX 4 9 0 0
BITMAP
50
B4
B4
B4
B4
B4
B4
7D
3D
ENDCHAR
STARTCHAR m
ENCODING 109
SWIDTH 851 0
DWIDTH 9 0
BBX 9 6 0 0
BITMAP
669A00
BFFF80
BAE7C0
B5E3C0
B5E3C0
75E380
ENDCHAR
STARTCHAR n
ENCODING 110
SWIDTH 606 0
DWIDTH 7 0
BBX 7 6 0 0
BITMAP
6680
BFE0
B9F0
B4B4
B4B4
74B0
ENDCHAR
STARTCHAR o
ENCODING 111
SWIDTH 600 0
DWIDTH 7 0
BBX 7 6 0 0
BITMAP
1B80
7FE0
B4B4
B4B4
7FF0
1F90
ENDCHAR
STARTCHAR p
ENCODING 112
SWIDTH 582 0
DWIDTH 6 0
BBX 6 9 0 -3
BITMAP
6640
BFE0
B9F0
B8F0
BFE0
BA80
B400
B400
5000
ENDCHAR
STARTCHAR q
ENCODING 113
SWIDTH 582 0
DWIDTH 6 0
BBX 6 9 0 -3
BITMAP
1AA0
7FF0
B5F0
B5F0
7FF0
1AF0
00F0
00F0
0050
ENDCHAR
STARTCHAR r
ENCODING 114
SWIDTH 457 0
DWIDTH 5 0
BBX 5 6 0 0
BITMAP
6680
BF80
B800
B400
B400
7400
ENDCHAR
STARTCHAR s
ENCODING 115
SWIDTH 489 0
DWIDTH 5 0
BBX 5 6 0 0
BITMAP
2E40
7A80
7E40
2FC0
7BC0
7F80
ENDCHAR
STARTCHAR t
ENCODING 116
SWIDTH 449 0
DWIDTH 5 0
BBX 5 8 0 0
BITMAP
2800
2C00
BE40
BF80
3D00
2C00
2F40
1B40
ENDCHAR
STARTCHAR u
ENCODING 117
SWIDTH 606 0
DWIDTH 7 0
BBX 7 6 0 0
BITMAP
6460
B4B4
B4B4
78B4
7FF4
1EB0
ENDCHAR
STARTCHAR v
ENCODING 118
SWIDTH 638 0
DWIDTH 7 0
BBX 7 6 0 0
BITMAP
6024
B478
3CF4
2FE0
0FC0
0740
ENDCHAR
STARTCHAR w
ENCODING 119
SWIDTH 793 0
DWIDTH 9 0
BBX 9 6 0 0
BITMAP
618640
B6EB40
7FFF00
3FFE00
1F7D00
0E2800
ENDCHAR
STARTCHAR x
ENCODING 120
SWIDTH 567 0
DWIDTH 6 0
BBX 6 6 0 0
BITMAP
60A0
BAF0
2FC0
2F80
BEE0
B0A0
ENDCHAR
STARTCHAR y
ENCODING 121
SWIDTH 604 0
DWIDTH 7 0
BBX 7 9 0 -3
BITMAP
6064
B8B4
3DF0
1FD0
0FC0
0B80
0F00
1E00
0800
ENDCHAR
STARTCHAR z
ENCODING 122
SWIDTH 586 0
DWIDTH 6 0
BBX 6 6 0 0
BITMAP
6AA0
7FF0
0BC0
2F00
7FF0
BFF0
ENDCHAR
STARTCHAR braceleft
ENCODING 123
SWIDTH 381 0
DWIDTH 4 0
BBX 4 12 0 -3
BITMAP
05
1F
2C
2C
2C
B8
B8
2C
2C
2C
1F
05
ENDCHAR
STARTCHAR bar
ENCODING 124
SWIDTH 217 0
DWIDTH 2 0
BBX 2 12 0 -3
BITMAP
50
B0
B0
B0
B0
B0
B0
B0
B0
B0
B0
50
ENDCHAR
STARTCHAR braceright
ENCODING 125
SWIDTH 381 0
DWIDTH 4 0
BBX 4 12 0 -3
BITMAP
50
B4
38
28
28
2E
2E
28
28
38
B4
50
ENDCHAR
STARTCHAR asciitilde
ENCODING 126
SWIDTH 651 0
DWIDTH 7 0
BBX 6 3 0 1
BITMAP
2FB0
7BE0
0040
ENDCHAR
STARTCHAR exclamdown
ENCODING 161
SWIDTH 268 0
DWIDTH 3 0
BBX 3 9 0 -3
BITMAP
64
B4
10
64
74
B4
B4
74
10
ENDCHAR
STARTCHAR cent
ENCODING 162
SWIDTH 434 0
DWIDTH 5 0
BBX 5 9 0 -1
BITMAP
0400
0D00
1E00
7F40
B500
B600
3F40
0D00
0900
ENDCHAR
STARTCHAR sterling
ENCODING 163
SWIDTH 675 0
DWIDTH 7 0
BBX 7 8 0 0
BITMAP
0BF4
1FBC
2C04
7E40
BF80
1D00
3FA8
3FFC
ENDCHAR
STARTCHAR currency
ENCODING 164
SWIDTH 677 0
DWIDTH 7 0
BBX 7 9 0 0
BITMAP
1004
B96C
3FF4
7978
742C
743C
3EF8
7FF8
6018
ENDCHAR
STARTCHAR yen
ENCODING 165
SWIDTH 677 0
DWIDTH 7 0
BBX 7 8 0 0
BITMAP
B02C
B87C
3DF4
1FE0
2FF4
0790
2FF4
0780
ENDCHAR
STARTCHAR brokenbar
ENCODING 166
SWIDTH 215 0
DWIDTH 2 0
BBX 2 12 0 -3
BITMAP
50
B0
B0
B0
B0
50
50
B0
B0
B0
B0
10
ENDCHAR
STARTCHAR section
ENCODING 167
SWIDTH 560 0
DWIDTH 6 0
BBX 6 12 0 -3
BITMAP
0500
3FD0
B980
7900
7FD0
BAE0
79E0
2FE0
01E0
B5E0
7FD0
0500
ENDCHAR
STARTCHAR dieresis
ENCODING 168
SWIDTH 489 0
DWIDTH 5 0
BBX 6 3 0 6
BITMAP
1140
B6D0
1040
ENDCHAR
STARTCHAR copyright
ENCODING 169
SWIDTH 711 0
DWIDTH 8 0
BBX 8 7 0 1
BITMAP
2EB4
669C
9E99
9C06
9A99
355C
1BE0
ENDCHAR
STARTCHAR ordfeminine
ENCODING 170
SWIDTH 445 0
DWIDTH 5 0
BBX 5 5 0 3
BITMAP
2A40
BB40
A740
7F40
0500
ENDCHAR
STARTCHAR guillemotleft
ENCODING 171
SWIDTH 668 0
DWIDTH 7 0
BBX 7 6 0 0
BITMAP
0518
2E7C
79F0
B9E0
2E78
0A18
ENDCHAR
STARTCHAR logicalnot
ENCODING 172
SWIDTH 526 0
DWIDTH 6 0
BBX 6 4 0 1
BITMAP
BFD0
BFE0
00E0
0050
ENDCHAR
STARTCHAR registered
ENCODING 174
SWIDTH 711 0
DWIDTH 8 0
BBX 8 7 0 1
BITMAP
2EB4
669C
9AA9
9BD6
9AA9
356C
1BE0
ENDCHAR
STARTCHAR degree
ENCODING 176
SWIDTH 407 0
DWIDTH 4 0
BBX 4 5 0 4
BITMAP
14
7F
A7
7F
14
ENDCHAR
STARTCHAR plusminus
ENCODING 177
SWIDTH 505 0
DWIDTH 6 0
BBX 6 6 0 0
BITMAP
0D00
6F80
BFD0
0E00
5A40
7FC0
ENDCHAR
STARTCHAR twosuperior
ENCODING 178
SWIDTH 455 0
DWIDTH 5 0
BBX 5 7 0 2
BITMAP
0400
7F00
B780
6740
2E00
BF80
6A40
ENDCHAR
STARTCHAR threesuperior
ENCODING 179
SWIDTH 457 0
DWIDTH 5 0
BBX 5 7 0 2
BITMAP
0400
3F40
7780
0F40
6780
BB80
1900
ENDCHAR
STARTCHAR acute
ENCODING 180
SWIDTH 605 0
DWIDTH 7 0
BBX 4 3 1 6
BITMAP
05
7E
24
ENDCHAR
STARTCHAR mu
ENCODING 181
SWIDTH 601 0
DWIDTH 7 0
BBX 7 9 0 -3
BITMAP
6460
B4B4
B4B4
B8F4
BFF4
BEB0
B400
B400
1000
ENDCHAR
STARTCHAR paragraph
ENCODING 182
SWIDTH 614 0
DWIDTH 7 0
BBX 6 10 0 -3
BITMAP
2AA0
BFB0
BE70
7E70
0A70
0A70
0A70
0A70
0A70
0510
ENDCHAR
STARTCHAR periodcentered
ENCODING 183
SWIDTH 237 0
DWIDTH 3 0
BBX 3 3 0 2
BITMAP
50
B4
60
ENDCHAR
STARTCHAR cedilla
ENCODING 184
SWIDTH 559 0
DWIDTH 6 0
BBX 2 3 2 -2
BITMAP
40
B0
E0
ENDCHAR
STARTCHAR onesuperior
ENCODING 185
SWIDTH 321 0
DWIDTH 4 0
BBX 3 6 0 2
BITMAP
2C
BC
6C
2C
2C
18
ENDCHAR
STARTCHAR ordmasculine
ENCODING 186
SWIDTH 439 0
DWIDTH 5 0
BBX 5 5 0 3
BITMAP
2900
7B40
A340
7F40
1400
ENDCHAR
STARTCHAR guillemotright
ENCODING 187
SWIDTH 669 0
DWIDTH 7 0
BBX 7 6 0 0
BITMAP
6080
B9E0
2E78
1E7C
79F4
A1D0
ENDCHAR
STARTCHAR onequarter
ENCODING 188
SWIDTH 786 0
DWIDTH 9 0
BBX 8 9 0 0
BITMAP
0414
3C24
6C60
1CD0
1D96
037B
067B
0C6B
2807
ENDCHAR
STARTCHAR onehalf
ENCODING 189
SWIDTH 804 0
DWIDTH 9 0
BBX 8 9 0 0
BITMAP
0414
3C24
6C60
1CD0
1D99
037B
066B
0C2E
287F
ENDCHAR
STARTCHAR threequarters
ENCODING 190
SWIDTH 842 0
DWIDTH 9 0
BBX 9 10 0 -1
BITMAP
140400
3F1C00
1A2400
6B6000
7E9540
059E80
036B80
062B80
0C0280
040000
ENDCHAR
STARTCHAR questiondown
ENCODING 191
SWIDTH 511 0
DWIDTH 6 0
BBX 6 9 0 -3
BITMAP
0A00
0E00
0000
0E00
7D00
B440
B6D0
3FC0
0500
ENDCHAR
STARTCHAR Agrave
ENCODING 192
SWIDTH 765 0
DWIDTH 8 0
BBX 8 11 0 0
BITMAP
0500
0BD0
0190
02C0
03E0
0BF0
0FB8
2E7C
3FFE
B95F
B00B
ENDCHAR
STARTCHAR Aacute
ENCODING 193
SWIDTH 765 0
DWIDTH 8 0
BBX 8 11 0 0
BITMAP
0060
03F0
0140
02C0
03E0
0BF0
0FB8
2E7C
3FFE
B95F
B00B
ENDCHAR
STARTCHAR Acircumflex
ENCODING 194
SWIDTH 765 0
DWIDTH 8 0
BBX 8 11 0 0
BITMAP
0290
0FF4
0410
02C0
03E0
0BF0
0FB8
2E7C
3FFE
B95F
B00B
ENDCHAR
STARTCHAR Atilde
ENCODING 195
SWIDTH 765 0
DWIDTH 8 0
BBX 8 11 0 0
BITMAP
0660
0FF4
0040
02C0
03E0
0BF0
0FB8
2E7C
3FFE
B95F
B00B
ENDCHAR
STARTCHAR Adieresis
ENCODING 196
SWIDTH 765 0
DWIDTH 8 0
BBX 8 11 0 0
BITMAP
0924
1E78
0410
02C0
03E0
0BF0
0FB8
2E7C
3FFE
B95F
B00B
ENDCHAR
STARTCHAR Aring
ENCODING 197
SWIDTH 765 0
DWIDTH 8 0
BBX 8 10 0 0
BITMAP
0290
0260
02D0
03E0
0BF0
0FB8
2E7C
3FFE
B95F
B00B
ENDCHAR
STARTCHAR AE
ENCODING 198
SWIDTH 1148 0
DWIDTH 13 0
BBX 13 8 0 0
BITMAP
001FFF40
007FFF40
01FF0000
03EFFC00
0F9FFC00
2FFF0000
B95FFF40
A00BFF40
ENDCHAR
STARTCHAR Ccedilla
ENCODING 199
SWIDTH 679 0
DWIDTH 7 0
BBX 7 10 0 -2
BITMAP
0BF8
3FFC
7804
B400
B400
7804
2FFC
0BF8
01D0
01D0
ENDCHAR
STARTCHAR Egrave
ENCODING 200
SWIDTH 638 0
DWIDTH 7 0
BBX 7 11 0 0
BITMAP
0500
0FD0
0180
7FF8
BFF8
B400
BFD0
BFD0
B400
BFF8
7FF8
ENDCHAR
STARTCHAR Eacute
ENCODING 201
SWIDTH 638 0
DWIDTH 7 0
BBX 7 11 0 0
BITMAP
0180
0BD0
0500
7FF8
BFF8
B400
BFD0
BFD0
B400
BFF8
7FF8
ENDCHAR
STARTCHAR Ecircumflex
ENCODING 202
SWIDTH 638 0
DWIDTH 7 0
BBX 7 11 0 0
BITMAP
0640
2FE0
0450
7FF8
BFF8
B400
BFD0
BFD0
B400
BFF8
7FF8
ENDCHAR
STARTCHAR Edieresis
ENCODING 203
SWIDTH 638 0
DWIDTH 7 0
BBX 7 11 0 0
BITMAP
1860
2CF0
0450
7FF8
BFF8
B400
BFD0
BFD0
B400
BFF8
7FF8
ENDCHAR
STARTCHAR Igrave
ENCODING 204
SWIDTH 267 0
DWIDTH 3 0
BBX 4 11 -1 0
BITMAP
10
7E
19
1D
2D
2D
2D
2D
2D
2D
1D
ENDCHAR
STARTCHAR Iacute
ENCODING 205
SWIDTH 269 0
DWIDTH 3 0
BBX 4 11 0 0
BITMAP
19
BD
50
74
B4
B4
B4
B4
B4
B4
74
ENDCHAR
STARTCHAR Icircumflex
ENCODING 206
SWIDTH 270 0
DWIDTH 3 0
BBX 5 11 -1 0
BITMAP
1900
BF80
1100
1D00
2D00
2D00
2D00
2D00
2D00
2D00
1D00
ENDCHAR
STARTCHAR Idieresis
ENCODING 207
SWIDTH 268 0
DWIDTH 3 0
BBX 5 11 -1 0
BITMAP
A280
F3C0
0000
1D00
1D00
1D00
1D00
1D00
1D00
1D00
1D00
ENDCHAR
STARTCHAR Eth
ENCODING 208
SWIDTH 775 0
DWIDTH 9 0
BBX 9 8 0 0
BITMAP
2FF400
2FFD00
2D1F00
7E0B40
7E0B40
2D1F00
2FFD00
2FE400
ENDCHAR
STARTCHAR Ntilde
ENCODING 209
SWIDTH 720 0
DWIDTH 8 0
BBX 8 11 0 0
BITMAP
0660
0FF0
0040
741D
BD1D
BF1D
BF9D
B6FD
B4FD
B47D
742D
ENDCHAR
STARTCHAR Ograve
ENCODING 210
SWIDTH 775 0
DWIDTH 9 0
BBX 9 11 0 0
BITMAP
050000
0BE000
019000
0BF400
3FFD00
781F00
B40B40
B40B40
781F00
3FFD00
0BF400
ENDCHAR
STARTCHAR Oacute
ENCODING 211
SWIDTH 775 0
DWIDTH 9 0
BBX 9 11 0 0
BITMAP
006000
03F000
014000
0BF400
3FFD00
781F00
B40B40
B40B40
781F00
3FFD00
0BF400
ENDCHAR
STARTCHAR Ocircumflex
ENCODING 212
SWIDTH 775 0
DWIDTH 9 0
BBX 9 11 0 0
BITMAP
019000
0BF400
011000
0BF400
3FFD00
781F00
B40B40
B40B40
781F00
3FFD00
0BF400
ENDCHAR
STARTCHAR Otilde
ENCODING 213
SWIDTH 775 0
DWIDTH 9 0
BBX 9 11 0 0
BITMAP
025400
0BF400
005000
0BF400
3FFD00
781F00
B40B40
B40B40
781F00
3FFD00
0BF400
ENDCHAR
STARTCHAR Odieresis
ENCODING 214
SWIDTH 775 0
DWIDTH 9 0
BBX 9 11 0 0
BITMAP
092400
1E7800
041000
0BF400
3FFD00
781F00
B40B40
B40B40
781F00
3FFD00
0BF400
ENDCHAR
STARTCHAR multiply
ENCODING 215
SWIDTH 521 0
DWIDTH 6 0
BBX 6 6 0 0
BITMAP
1040
BAD0
3F80
2F80
BBD0
6080
ENDCHAR
STARTCHAR Oslash
ENCODING 216
SWIDTH 775 0
DWIDTH 9 0
BBX 9 10 0 -1
BITMAP
001400
0BFC00
3FFD00
78FF00
B5EB40
B7CB40
7F9F00
3FFD00
1FF400
090000
ENDCHAR
STARTCHAR Ugrave
ENCODING 217
SWIDTH 726 0
DWIDTH 8 0
BBX 8 11 0 0
BITMAP
0500
1FC0
0140
741D
B41E
B41E
B41E
B41D
782D
3FF8
0BE0
ENDCHAR
STARTCHAR Uacute
ENCODING 218
SWIDTH 726 0
DWIDTH 8 0
BBX 8 11 0 0
BITMAP
0060
03F0
0140
741D
B41E
B41E
B41E
B41D
782D
3FF8
0BE0
ENDCHAR
STARTCHAR Ucircumflex
ENCODING 219
SWIDTH 726 0
DWIDTH 8 0
BBX 8 11 0 0
BITMAP
0690
0FF4
0410
741D
B41E
B41E
B41E
B41D
782D
3FF8
0BE0
ENDCHAR
STARTCHAR Udieresis
ENCODING 220
SWIDTH 726 0
DWIDTH 8 0
BBX 8 11 0 0
BITMAP
1964
1D74
0410
741D
B41E
B41E
B41E
B41D
782D
3FF8
0BE0
ENDCHAR
STARTCHAR Yacute
ENCODING 221
SWIDTH 686 0
DWIDTH 8 0
BBX 8 11 0 0
BITMAP
0190
0BD0
0500
B42D
787C
2DF4
1FE0
0BC0
0780
0780
0380
ENDCHAR
STARTCHAR Thorn
ENCODING 222
SWIDTH 634 0
DWIDTH 7 0
BBX 7 8 0 0
BITMAP
7400
BF90
BFF4
B478
B4B8
BFF4
BF90
7400
ENDCHAR
STARTCHAR germandbls
ENCODING 223
SWIDTH 633 0
DWIDTH 7 0
BBX 7 10 0 -1
BITMAP
0500
3FD0
7AE0
B6D0
B7C0
B5F0
B478
B6B8
B7F4
1000
ENDCHAR
STARTCHAR agrave
ENCODING 224
SWIDTH 596 0
DWIDTH 7 0
BBX 6 9 0 0
BITMAP
0500
0FC0
0180
1AA0
7FF0
B9F0
B4F0
7FF0
1FB0
ENDCHAR
STARTCHAR aacute
ENCODING 225
SWIDTH 596 0
DWIDTH 7 0
BBX 6 9 0 0
BITMAP
0140
0FC0
0900
1AA0
7FF0
B9F0
B4F0
7FF0
1FB0
ENDCHAR
STARTCHAR acircumflex
ENCODING 226
SWIDTH 596 0
DWIDTH 7 0
BBX 6 9 0 0
BITMAP
0540
1FE0
0450
1AA0
7FF0
B9F0
B4F0
7FF0
1FB0
ENDCHAR
STARTCHAR atilde
ENCODING 227
SWIDTH 596 0
DWIDTH 7 0
BBX 6 9 0 0
BITMAP
0550
1FE0
0540
1AA0
7FF0
B9F0
B4F0
7FF0
1FB0
ENDCHAR
STARTCHAR adieresis
ENCODING 228
SWIDTH 596 0
DWIDTH 7 0
BBX 6 9 0 0
BITMAP
1450
3CF0
1450
1AA0
7FF0
B9F0
B4F0
7FF0
1FB0
ENDCHAR
STARTCHAR aring
ENCODING 229
SWIDTH 596 0
DWIDTH 7 0
BBX 6 9 0 0
BITMAP
0100
0580
0640
1AA0
7FF0
B9F0
B4F0
7FF0
1FB0
ENDCHAR
STARTCHAR ae
ENCODING 230
SWIDTH 910 0
DWIDTH 10 0
BBX 10 6 0 0
BITMAP
2A5A40
7FFFD0
25F5E0
7FFA90
B5FA90
7F6FD0
ENDCHAR
STARTCHAR ccedilla
ENCODING 231
SWIDTH 524 0
DWIDTH 6 0
BBX 6 8 0 -2
BITMAP
1B80
7FD0
B840
B440
7FD0
1F80
0740
0B40
ENDCHAR
STARTCHAR egrave
ENCODING 232
SWIDTH 573 0
DWIDTH 6 0
BBX 6 9 0 0
BITMAP
0400
1F80
0640
1B80
7FE0
B9F0
BE90
7E90
2FE0
ENDCHAR
STARTCHAR eacute
ENCODING 233
SWIDTH 573 0
DWIDTH 6 0
BBX 6 9 0 0
BITMAP
0140
0FC0
0900
1B80
7FE0
B9F0
BE90
7E90
2FE0
ENDCHAR
STARTCHAR ecircumflex
ENCODING 234
SWIDTH 573 0
DWIDTH 6 0
BBX 6 9 0 0
BITMAP
0500
2FD0
1580
1B80
7FE0
B9F0
BE90
7E90
2FE0
ENDCHAR
STARTCHAR edieresis
ENCODING 235
SWIDTH 573 0
DWIDTH 6 0
BBX 6 9 0 0
BITMAP
1450
79E0
1450
1B80
7FE0
B9F0
BE90
7E90
2FE0
ENDCHAR
STARTCHAR igrave
ENCODING 236
SWIDTH 255 0
DWIDTH 3 0
BBX 4 9 -1 0
BITMAP
10
7E
19
19
2D
2D
2D
2D
1D
ENDCHAR
STARTCHAR iacute
ENCODING 237
SWIDTH 255 0
DWIDTH 3 0
BBX 4 9 0 0
BITMAP
04
BD
64
64
B4
B4
B4
B4
74
ENDCHAR
STARTCHAR icircumflex
ENCODING 238
SWIDTH 255 0
DWIDTH 3 0
BBX 5 9 -1 0
BITMAP
1500
BF40
5100
1900
2D00
2D00
2D00
2D00
1D00
ENDCHAR
STARTCHAR idieresis
ENCODING 239
SWIDTH 255 0
DWIDTH 3 0
BBX 5 9 -1 0
BITMAP
5140
F3C0
5140
1900
2D00
2D00
2D00
2D00
1D00
ENDCHAR
STARTCHAR eth
ENCODING 240
SWIDTH 585 0
DWIDTH 6 0
BBX 6 9 0 0
BITMAP
0640
1F40
0ED0
0AE0
3FF0
B9F0
B4F0
7FE0
1F80
ENDCHAR
STARTCHAR ntilde
ENCODING 241
SWIDTH 606 0
DWIDTH 7 0
BBX 7 9 0 0
BITMAP
0540
2FD0
1140
6680
BFE0
B9F0
B4B4
B4B4
74B0
ENDCHAR
STARTCHAR ograve
ENCODING 242
SWIDTH 600 0
DWIDTH 7 0
BBX 7 9 0 0
BITMAP
0400
1F80
0640
1B80
7FE0
B4B4
B4B4
7FF0
1F90
ENDCHAR
STARTCHAR oacute
ENCODING 243
SWIDTH 600 0
DWIDTH 7 0
BBX 7 9 0 0
BITMAP
0140
0FC0
0900
1B80
7FE0
B4B4
B4B4
7FF0
1F90
ENDCHAR
STARTCHAR ocircumflex
ENCODING 244
SWIDTH 600 0
DWIDTH 7 0
BBX 7 9 0 0
BITMAP
0500
2FD0
1540
1B80
7FE0
B4B4
B4B4
7FF0
1F90
ENDCHAR
STARTCHAR otilde
ENCODING 245
SWIDTH 600 0
DWIDTH 7 0
BBX 7 9 0 0
BITMAP
0540
2FD0
1140
1B80
7FE0
B4B4
B4B4
7FF0
1F90
ENDCHAR
STARTCHAR odieresis
ENCODING 246
SWIDTH 600 0
DWIDTH 7 0
BBX 7 9 0 0
BITMAP
1450
79E0
1450
1B80
7FE0
B4B4
B4B4
7FF0
1F90
ENDCHAR
STARTCHAR divide
ENCODING 247
SWIDTH 503 0
DWIDTH 6 0
BBX 5 6 0 0
BITMAP
0E00
0900
6A80
6A80
0900
0E00
ENDCHAR
STARTCHAR oslash
ENCODING 248
SWIDTH 600 0
DWIDTH 7 0
BBX 7 10 0 -2
BITMAP
0050
00F0
1BE0
7FE0
B4B4
B4B4
7FF0
3FD0
7800
2000
ENDCHAR
STARTCHAR ugrave
ENCODING 249
SWIDTH 606 0
DWIDTH 7 0
BBX 7 9 0 0
BITMAP
0400
1F80
0640
6460
B4B4
B4B4
78B4
7FF4
1EB0
ENDCHAR
STARTCHAR uacute
ENCODING 250
SWIDTH 606 0
DWIDTH 7 0
BBX 7 9 0 0
BITMAP
0040
0BD0
0640
6460
B4B4
B4B4
78B4
7FF4
1EB0
ENDCHAR
STARTCHAR ucircumflex
ENCODING 251
SWIDTH 606 0
DWIDTH 7 0
BBX 7 9 0 0
BITMAP
0540
2FD0
1440
6460
B4B4
B4B4
78B4
7FF4
1EB0
ENDCHAR
STARTCHAR udieresis
ENCODING 252
SWIDTH 606 0
DWIDTH 7 0
BBX 7 9 0 0
BITMAP
1450
39E0
1450
6460
B4B4
B4B4
78B4
7FF4
1EB0
ENDCHAR
STARTCHAR yacute
ENCODING 253
SWIDTH 604 0
DWIDTH 7 0
BBX 7 12 0 -3
BITMAP
0140
0BD0
0640
6064
B8B4
3DF0
1FD0
0FC0
0B80
0F00
1E00
0800
ENDCHAR
STARTCHAR thorn
ENCODING 254
SWIDTH 580 0
DWIDTH 6 0
BBX 6 12 0 -3
BITMAP
6000
B400
B400
BA40
BFE0
B9F0
B4F0
BFE0
BB80
B400
B400
1000
ENDCHAR
STARTCHAR ydieresis
ENCODING 255
SWIDTH 604 0
DWIDTH 7 0
BBX 7 12 0 -3
BITMAP
1450
3CF0
1450
6064
B8B4
3DF0
1FD0
0FC0
0B80
0F00
1E00
0800
ENDCHAR
STARTCHAR dotlessi
ENCODING 305
SWIDTH 255 0
DWIDTH 3 0
BBX 3 6 0 0
BITMAP
64
B4
B4
B4
B4
74
ENDCHAR
STARTCHAR Lslash
ENCODING 321
SWIDTH 687 0
DWIDTH 8 0
BBX 8 8 0 0
BITMAP
1D00
1D00
1E40
6FC0
BE00
1D00
1EA8
1FFD
ENDCHAR
STARTCHAR lslash
ENCODING 322
SWIDTH 468 0
DWIDTH 5 0
BBX 5 9 0 0
BITMAP
1400
2D00
2D00
2E40
6FC0
BD00
2D00
1F40
0F40
ENDCHAR
STARTCHAR OE
ENCODING 338
SWIDTH 1092 0
DWIDTH 12 0
BBX 12 8 0 0
BITMAP
0BFFFE
3FFFFE
782D00
B42FF4
B42FF4
782D00
2FFFFE
0BFFFE
ENDCHAR
STARTCHAR oe
ENCODING 339
SWIDTH 944 0
DWIDTH 10 0
BBX 10 6 0 0
BITMAP
1B9A80
7FFFF0
B4F9F0
B4BEA0
7FFEA0
1F9FE0
ENDCHAR
STARTCHAR Scaron
ENCODING 352
SWIDTH 583 0
DWIDTH 6 0
BBX 6 11 0 0
BITMAP
1580
2FD0
0500
2FD0
7ED0
B800
7F90
1BF0
60F0
BEF0
2F90
ENDCHAR
STARTCHAR scaron
ENCODING 353
SWIDTH 489 0
DWIDTH 5 0
BBX 5 9 0 0
BITMAP
1140
BF80
1900
2E40
7A80
7E40
2FC0
7BC0
7F80
ENDCHAR
STARTCHAR Ydieresis
ENCODING 376
SWIDTH 686 0
DWIDTH 8 0
BBX 8 11 0 0
BITMAP
1860
2DB4
1410
B42D
787C
2DF4
1FE0
0BC0
0780
0780
0380
ENDCHAR
STARTCHAR Zcaron
ENCODING 381
SWIDTH 643 0
DWIDTH 7 0
BBX 7 11 0 0
BITMAP
1990
1FE0
0140
BFF4
7FF4
02E0
07C0
0F40
2E00
BFF8
BFF8
ENDCHAR
STARTCHAR zcaron
ENCODING 382
SWIDTH 586 0
DWIDTH 6 0
BBX 6 9 0 0
BITMAP
1440
2FD0
0640
6AA0
7FF0
0BC0
2F00
7FF0
BFF0
ENDCHAR
STARTCHAR florin
ENCODING 402
SWIDTH 529 0
DWIDTH 6 0
BBX 6 11 0 -3
BITMAP
02E0
0B90
1F50
3FE0
1F40
0E00
1E00
1E00
6D00
FC00
5000
ENDCHAR
STARTCHAR circumflex
ENCODING 710
SWIDTH 603 0
DWIDTH 7 0
BBX 5 3 1 6
BITMAP
1400
BF40
5600
ENDCHAR
STARTCHAR caron
ENCODING 711
SWIDTH 600 0
DWIDTH 7 0
BBX 5 3 1 6
BITMAP
5100
BF40
1900
ENDCHAR
STARTCHAR dotaccent
ENCODING 729
SWIDTH 285 0
DWIDTH 3 0
BBX 3 3 0 7
BITMAP
24
78
10
ENDCHAR
STARTCHAR ring
ENCODING 730
SWIDTH 378 0
DWIDTH 4 0
BBX 4 3 0 7
BITMAP
29
65
28
ENDCHAR
STARTCHAR ogonek
ENCODING 731
SWIDTH 570 0
DWIDTH 6 0
BBX 2 3 2 -2
BITMAP
10
E0
F0
ENDCHAR
STARTCHAR tilde
ENCODING 732
SWIDTH 584 0
DWIDTH 6 0
BBX 4 3 1 6
BITMAP
51
FF
45
ENDCHAR
STARTCHAR endash
ENCODING 8211
SWIDTH 561 0
DWIDTH 6 0
BBX 6 2 0 2
BITMAP
BFE0
BFE0
ENDCHAR
STARTCHAR emdash
ENCODING 8212
SWIDTH 693 0
DWIDTH 8 0
BBX 8 2 0 2
BITMAP
BFFD
BFFD
ENDCHAR
STARTCHAR quoteleft
ENCODING 8216
SWIDTH 237 0
DWIDTH 3 0
BBX 3 4 0 4
BITMAP
24
A0
B4
60
ENDCHAR
STARTCHAR quoteright
ENCODING 8217
SWIDTH 237 0
DWIDTH 3 0
BBX 3 4 0 4
BITMAP
B4
B4
70
50
ENDCHAR
STARTCHAR quotesinglbase
ENCODING 8218
SWIDTH 237 0
DWIDTH 3 0
BBX 3 4 0 -2
BITMAP
B4
B4
70
50
ENDCHAR
STARTCHAR quotedblleft
ENCODING 8220
SWIDTH 482 0
DWIDTH 5 0
BBX 5 4 0 4
BITMAP
25C0
A340
B7C0
6280
ENDCHAR
STARTCHAR quotedblright
ENCODING 8221
SWIDTH 482 0
DWIDTH 5 0
BBX 5 4 0 4
BITMAP
B7C0
B7C0
7180
5200
ENDCHAR
STARTCHAR quotedblbase
ENCODING 8222
SWIDTH 482 0
DWIDTH 5 0
BBX 5 4 0 -2
BITMAP
B7C0
B7C0
7180
5200
ENDCHAR
STARTCHAR dagger
ENCODING 8224
SWIDTH 527 0
DWIDTH 6 0
BBX 6 10 0 -2
BITMAP
0E00
0F00
6F90
BFE0
0F00
0F00
0F00
0F00
0F00
0E00
ENDCHAR
STARTCHAR daggerdbl
ENCODING 8225
SWIDTH 527 0
DWIDTH 6 0
BBX 6 10 0 -2
BITMAP
0E00
0F00
6F90
BFE0
0F00
1F40
BFE0
5F50
0F00
0E00
ENDCHAR
STARTCHAR bullet
ENCODING 8226
SWIDTH 342 0
DWIDTH 4 0
BBX 4 3 0 2
BITMAP
7D
BD
7D
ENDCHAR
STARTCHAR ellipsis
ENCODING 8230
SWIDTH 911 0
DWIDTH 10 0
BBX 10 2 0 0
BITMAP
B4F1E0
B4F1E0
ENDCHAR
STARTCHAR perthousand
ENCODING 8240
SWIDTH 1223 0
DWIDTH 13 0
BBX 13 10 0 -1
BITMAP
00040000
3E1C0000
67240000
77700000
2E900000
019F5F40
027AA9C0
062AAAC0
0D1F4F40
04000000
ENDCHAR
STARTCHAR guilsinglleft
ENCODING 8249
SWIDTH 383 0
DWIDTH 4 0
BBX 4 6 0 0
BITMAP
06
2F
7C
B8
2E
0A
ENDCHAR
STARTCHAR guilsinglright
ENCODING 8250
SWIDTH 383 0
DWIDTH 4 0
BBX 4 6 0 0
BITMAP
60
B8
2E
2F
BC
A0
ENDCHAR
STARTCHAR fraction
ENCODING 8260
SWIDTH 433 0
DWIDTH 5 0
BBX 6 9 0 0
BITMAP
0010
0090
01C0
0240
0600
0900
1800
3400
6000
ENDCHAR
STARTCHAR Euro
ENCODING 8364
SWIDTH 612 0
DWIDTH 7 0
BBX 7 9 0 0
BITMAP
0150
0FF4
2E50
BEA0
7D50
BFE0
2E40
1FF4
07F4
ENDCHAR
STARTCHAR trademark
ENCODING 8482
SWIDTH 840 0
DWIDTH 9 0
BBX 9 5 0 2
BITMAP
BF6280
6DBB80
2CBF80
2CB680
041040
ENDCHAR
STARTCHAR minus
ENCODING 8722
SWIDTH 581 0
DWIDTH 6 0
BBX 6 2 0 2
BITMAP
BFF0
BFE0
ENDCHAR
STARTCHAR f_f
ENCODING 64256
SWIDTH 803 0
DWIDTH 9 0
BBX 9 9 0 0
BITMAP
060600
1F6F40
2D3D00
BEBE40
BFFF80
3D3C00
2C3C00
2C3C00
2C2C00
ENDCHAR
STARTCHAR fi
ENCODING 64257
SWIDTH 709 0
DWIDTH 8 0
BBX 8 9 0 0
BITMAP
0514
1F6D
2D04
7E58
BFAD
3D2D
2C2D
2C2D
2C1D
ENDCHAR
STARTCHAR fl
ENCODING 64258
SWIDTH 774 0
DWIDTH 9 0
BBX 9 9 0 0
BITMAP
051400
1F6D00
2D2D00
7E6D00
BFAD00
3D2D00
2C2D00
2C2F40
2C1F40
ENDCHAR
STARTCHAR f_f_i
ENCODING 64259
SWIDTH 1059 0
DWIDTH 12 0
BBX 12 9 0 0
BITMAP
060614
1F6F6D
2D3D14
BEBE58
BFFFAD
3D3C2D
2C3C2D
2C3C2D
2C2C2C
ENDCHAR
STARTCHAR .notdef
ENCODING -1
SWIDTH 500 0
DWIDTH 6 0
BBX 1 1 0 0
BITMAP
00
ENDCHAR
STARTCHAR .null
ENCODING -1
SWIDTH 0 0
DWIDTH 0 0
BBX 1 1 0 0
BITMAP
00
ENDCHAR
STARTCHAR nonmarkingreturn
ENCODING -1
SWIDTH 333 0
DWIDTH 4 0
BBX 1 1 0 0
BITMAP
00
ENDCHAR
STARTCHAR f_t
ENCODING -1
SWIDTH 814 0
DWIDTH 9 0
BBX 9 9 0 0
BITMAP
060000
1F6800
2D2C00
BEBE40
BFFF80
3D3D00
2C2C00
2C2F40
2C0B40
ENDCHAR
STARTCHAR t_t
ENCODING -1
SWIDTH 794 0
DWIDTH 9 0
BBX 9 8 0 0
BITMAP
282800
2C3C00
BEBE40
BFFF40
3D3C00
2C3C00
2F7E00
1B5F00
ENDCHAR
STARTCHAR l_l
ENCODING -1
SWIDTH 626 0
DWIDTH 7 0
BBX 7 9 0 0
BITMAP
5140
B6D0
B6D0
B6D0
B6D0
B6D0
B6D0
7EF8
2CB8
ENDCHAR
STARTCHAR j_j
ENCODING -1
SWIDTH 521 0
DWIDTH 6 0
BBX 8 12 -2 -3
BITMAP
0104
0B6D
0114
0618
0B6D
0B6D
0B6D
0B6D
0B6D
1F6D
7EBC
2450
ENDCHAR
ENDFONT
